<svg xmlns="http://www.w3.org/2000/svg" xml:space="preserve" width="2.66666in" height="2.66666in" version="1.1" style="shape-rendering:geometricPrecision; text-rendering:geometricPrecision; image-rendering:optimizeQuality; fill-rule:evenodd; clip-rule:evenodd" viewBox="0 0 2666.66 2666.66" xmlns:xlink="http://www.w3.org/1999/xlink" xmlns:xodm="http://www.corel.com/coreldraw/odm/2003">
<defs>
<style type="text/css">
   
    .fil1 {fill:#172F4C}
    .fil2 {fill:#204067}
    .fil0 {fill:#B5EAD7}
    .fil3 {fill:#D6E3FF}
   
  </style>
</defs>
<g id="Layer_x0020_1">
<metadata id="CorelCorpID_0Corel-Layer"></metadata>
<circle class="fil0" cx="1333.33" cy="1333.33" r="1333.33" id="id_113"></circle>
<path class="fil1" d="M919.93 2177.91l-229.3 0c-11.11,0 -20,-9.03 -20,-20l0 -140.14c0,-10.97 8.89,-20 20,-20l290.69 0c14.48,0 24.18,14.82 18.33,28.06l-61.39 140.14c-3.2,7.22 -10.42,11.94 -18.33,11.94z" id="id_114"></path>
<path class="fil1" d="M1976.17 2177.91l-229.3 0c-7.92,0 -15.14,-4.72 -18.33,-11.94l-61.39 -140.14c-5.7,-13.26 3.88,-28.06 18.33,-28.06l290.69 0c10.97,0 20,9.03 20,20l0 140.14c0,11.11 -9.03,20 -20,20z" id="id_115"></path>
<path class="fil2" d="M2015.48 2037.77l-1364.16 0c-94.44,0 -171.25,-76.81 -171.25,-171.25l0 -1206.52c0,-94.44 76.81,-171.25 171.25,-171.25l1364.02 -0c94.44,0 171.25,76.81 171.25,171.25l0 1206.52c0.14,94.44 -76.67,171.25 -171.11,171.25z" id="id_116"></path>
<path class="fil3" d="M1981.59 1880.13l-1296.38 0c-11.11,0 -20,-9.03 -20,-20l0 -1193.88c0,-11.11 8.89,-20 20,-20l1296.24 0c10.97,0 20,8.89 20,20l0 170.42c0,26.94 -36.82,20 -68.47,20 -19.31,0 -35,15.69 -35,35 0,98.72 -9.01,98.33 83.47,98.33 10.97,0 20,8.89 20,20l0 512.22c0,26.94 -37.05,20 -68.47,20 -19.31,0 -35,15.69 -35,35 0,98.72 -9.01,98.33 83.47,98.33 10.97,0 20,9.03 20,20l0 164.58c0.14,11.11 -8.89,20 -19.86,20z" id="id_117"></path>
<path class="fil1" d="M2029.78 1030l-96.81 0c-41.39,0 -75,-33.61 -75,-75l0 -63.33c0,-41.39 33.61,-75 75,-75l96.81 0c41.39,0 75,33.61 75,75l0 63.33c0,41.39 -33.61,75 -75,75z" id="id_118"></path>
<path class="fil1" d="M2029.78 1715.69l-96.81 0c-41.39,0 -75,-33.61 -75,-75l0 -63.33c0,-41.39 33.61,-75 75,-75l96.81 0c41.39,0 75,33.61 75,75l0 63.33c0,41.25 -33.61,75 -75,75z" id="id_119"></path>
<path class="fil2" d="M1333.39 1442.77c-100,0 -181.24,-81.39 -181.24,-181.24 0,-100 81.39,-181.25 181.24,-181.25 100,0 181.25,81.25 181.25,181.25 0,99.99 -81.25,181.24 -181.25,181.24zm0 -322.5c-77.91,0 -141.24,63.33 -141.24,141.25 0,77.91 63.33,141.25 141.24,141.25 77.92,0 141.25,-63.33 141.25,-141.24 0,-77.92 -63.33,-141.25 -141.25,-141.25z" id="id_120"></path>
<path class="fil2" d="M1333.39 1528.6c-11.11,0 -20,-9.03 -20,-20l0 -85.83c0,-26.33 40,-26.33 40,0l0 85.83c0,11.11 -8.89,20 -20,20zm0 -408.33c-11.11,0 -20,-8.89 -20,-20l0 -85.83c0,-26.36 40,-26.36 40,0l0 85.83c0,10.97 -8.89,20 -20,20z" id="id_121"></path>
<path class="fil2" d="M1580.48 1281.52l-85.83 0c-26.33,0 -26.33,-40 0,-40l85.83 0c26.33,0 26.33,40 0,40zm-408.33 0l-85.83 0c-26.36,0 -26.36,-40 0,-40l85.83 0c26.43,0 26.26,40 0,40z" id="id_122"></path>
<path class="fil2" d="M1333.39 1358.74c-53.61,0 -97.22,-43.61 -97.22,-97.22 0,-53.61 43.61,-97.22 97.22,-97.22 53.61,0 97.22,43.61 97.22,97.22 0,53.61 -43.61,97.22 -97.22,97.22z" id="id_123"></path>
<path class="fil2" d="M938.54 1502.07l-127.08 0c-11.11,0 -20,-9.03 -20,-20l0 -437.63c0,-11.11 8.89,-20 20,-20l127.08 0c26.36,0 26.36,40 0,40l-107.08 0 0 397.63 107.08 0c26.33,0 26.33,40 0,40z" id="id_124"></path>
</g>
</svg>