<svg version="1.1" id="Layer_1" xmlns="http://www.w3.org/2000/svg" xmlns:xlink="http://www.w3.org/1999/xlink" x="0px" y="0px"
	 width="100%" viewBox="0 0 192 192" enable-background="new 0 0 192 192" xml:space="preserve">
<path fill="#010000" opacity="1.000000" stroke="none" 
	d="
M193.000000,66.000000 
	C193.000000,108.639206 193.000000,150.778412 193.000000,192.958801 
	C129.069168,192.958801 65.138306,192.958801 1.103719,192.958801 
	C1.103719,129.110977 1.103719,65.221733 1.103719,1.166244 
	C64.999641,1.166244 128.999786,1.166244 193.000000,1.166244 
	C193.000000,22.528091 193.000000,44.014046 193.000000,66.000000 
M47.010063,25.008953 
	C47.010063,25.008953 46.999958,24.957104 46.384148,24.915728 
	C45.908176,25.277029 45.432201,25.638330 45.012909,26.020573 
	C45.012909,26.020573 45.016430,25.960251 44.484638,26.305441 
	C44.297306,26.686380 44.109974,27.067322 43.359200,27.735577 
	C28.800293,37.664845 20.463478,52.124187 13.953556,68.726036 
	C12.628002,75.815643 11.302448,82.905243 9.608322,90.733215 
	C9.734519,98.158119 9.860716,105.583023 10.064384,113.783409 
	C13.714747,123.184875 17.365108,132.586349 21.316891,142.601624 
	C28.314926,154.214340 36.990791,164.059052 49.526436,170.021271 
	C53.611439,171.964188 57.464573,173.173584 61.870983,170.952530 
	C64.379448,169.688141 67.228539,169.120560 69.843872,168.043961 
	C98.116982,156.405136 121.921646,138.711227 141.230270,115.020493 
	C155.368500,97.673569 165.227661,77.935043 173.047729,57.106487 
	C173.469009,55.984428 173.558609,54.273926 172.992416,53.316479 
	C167.055771,43.277737 160.611435,33.649998 149.838791,27.379230 
	C149.553543,26.904512 149.268295,26.429792 149.002045,25.997936 
	C149.002045,25.997936 149.044113,26.018616 148.644287,25.559664 
	C148.083145,25.364609 147.522003,25.169554 146.987534,25.016941 
	C146.987534,25.016941 147.035690,25.030878 146.823273,24.554085 
	C146.538513,24.357372 146.253754,24.160660 145.997116,24.002029 
	C145.997116,24.002029 146.042999,24.013645 145.668900,23.535564 
	C145.110229,23.343031 144.551559,23.150496 143.981628,23.013683 
	C143.981628,23.013683 144.037186,23.025709 143.830490,22.544962 
	C143.543518,22.350309 143.256561,22.155657 142.991669,22.011618 
	C142.991669,22.011618 143.046783,22.015093 142.633163,21.582050 
	C142.075668,21.377729 141.518173,21.173410 140.990616,21.016241 
	C140.990616,21.016241 141.046463,21.015697 140.710297,20.471996 
	C139.798187,19.968788 138.886063,19.465578 137.993362,19.012201 
	C137.993362,19.012201 138.046631,19.007385 137.554642,18.519035 
	C135.359177,17.668835 133.163727,16.818636 130.990524,16.017590 
	C130.990524,16.017590 131.043671,16.008240 130.578049,15.465922 
	C115.763000,8.431734 100.017654,7.645517 84.206787,9.676121 
	C76.972343,10.605248 70.030991,13.816435 63.010277,16.018488 
	C63.010277,16.018488 63.017330,15.959443 62.268242,16.004728 
	C59.164272,17.668831 56.060303,19.332933 53.011524,21.025198 
	C53.011524,21.025198 53.025349,20.964800 52.425068,21.049456 
	C51.935459,21.365738 51.445854,21.682018 51.012543,22.014614 
	C51.012543,22.014614 51.007961,21.956184 50.372280,22.058149 
	C49.566875,22.704193 48.761471,23.350235 48.011265,24.019800 
	C48.011265,24.019800 48.016785,23.960049 47.528000,24.159697 
	C47.338821,24.436720 47.149647,24.713743 47.010063,25.008953 
z"/>
<path fill="#060505" opacity="1.000000" stroke="none" 
	d="
M149.893387,27.947582 
	C160.611435,33.649998 167.055771,43.277737 172.992416,53.316479 
	C173.558609,54.273926 173.469009,55.984428 173.047729,57.106487 
	C165.227661,77.935043 155.368500,97.673569 141.230270,115.020493 
	C121.921646,138.711227 98.116982,156.405136 69.843872,168.043961 
	C67.228539,169.120560 64.379448,169.688141 61.870983,170.952530 
	C57.464573,173.173584 53.611439,171.964188 49.526436,170.021271 
	C36.990791,164.059052 28.314926,154.214340 21.565022,142.342514 
	C27.022697,141.726791 32.524105,142.317841 37.382656,140.821533 
	C48.403130,137.427505 59.107136,133.005875 70.005875,129.444656 
	C70.243057,134.921402 69.687660,140.164261 74.151154,144.312927 
	C80.515411,151.222733 89.994446,153.263840 98.360901,149.857742 
	C106.508629,146.540726 109.858139,141.089981 109.939011,130.941040 
	C109.976067,126.289650 110.392487,121.588074 109.868805,116.996864 
	C108.883125,108.355209 110.753532,100.996674 117.439377,95.060509 
	C118.743431,93.902687 119.408325,92.024986 120.618500,90.341125 
	C127.743683,81.753632 134.618408,73.304337 140.812897,65.691071 
	C143.912827,66.159729 146.893951,67.531036 148.640472,66.596085 
	C150.158630,65.783379 150.673157,62.405426 150.923813,60.084702 
	C151.260971,56.963314 150.900787,53.768700 150.871613,50.605221 
	C150.804352,43.312851 148.016983,41.432415 140.847870,43.877945 
	C140.336349,42.666718 139.697235,41.531555 139.911499,40.590740 
	C141.177979,35.029762 142.642685,29.513929 144.374298,24.004704 
	C145.152924,24.022217 145.597961,24.017931 146.042999,24.013645 
	C146.042999,24.013645 145.997116,24.002029 146.104279,24.211649 
	C146.486176,24.624472 146.760941,24.827675 147.035690,25.030878 
	C147.035690,25.030878 146.987534,25.016941 147.176910,25.219276 
	C147.925568,25.620613 148.484848,25.819614 149.044113,26.018616 
	C149.044113,26.018616 149.002045,25.997936 149.007202,26.262135 
	C149.306046,27.000082 149.599716,27.473833 149.893387,27.947582 
z"/>
<path fill="#0A0A0A" opacity="1.000000" stroke="none" 
	d="
M144.040710,23.982906 
	C142.642685,29.513929 141.177979,35.029762 139.911499,40.590740 
	C139.697235,41.531555 140.336349,42.666718 140.714264,44.188004 
	C133.859070,53.710796 126.870842,62.757675 119.581589,71.961548 
	C111.903282,81.744125 104.525986,91.369705 96.783646,101.036919 
	C91.618980,105.363472 86.819374,109.648392 81.716980,113.779221 
	C75.545853,109.744629 70.513245,112.084000 70.074303,119.056229 
	C69.887756,122.019485 70.264191,125.018173 70.276367,128.252335 
	C70.091911,128.669937 70.015862,128.835983 69.939804,129.002014 
	C59.107136,133.005875 48.403130,137.427505 37.382656,140.821533 
	C32.524105,142.317841 27.022697,141.726791 21.414310,142.035614 
	C17.365108,132.586349 13.714747,123.184875 10.429127,113.302917 
	C28.224365,111.184975 44.366859,105.629539 59.495647,96.919365 
	C60.598206,96.284576 62.028904,96.219727 63.565426,96.073174 
	C64.935539,97.523453 66.047264,98.790459 67.251328,100.372849 
	C68.748566,102.505531 69.940163,104.554543 71.606155,106.088219 
	C74.413704,108.672791 77.666664,108.656792 80.549110,106.200920 
	C83.240631,103.907707 83.217209,101.004883 81.205925,98.254105 
	C79.771057,96.291687 78.043694,94.543129 76.397751,92.350235 
	C73.802689,88.360847 71.256714,84.720375 69.056618,80.979156 
	C72.981689,78.153915 76.560890,75.429420 80.414886,72.909866 
	C81.293831,73.902809 81.887238,74.699318 82.503799,75.477478 
	C88.127945,82.575668 91.723961,82.514656 97.224426,75.311867 
	C102.451118,68.467583 107.786736,61.705891 112.964127,54.824871 
	C114.923859,52.220291 117.214531,49.603348 115.296921,45.855412 
	C113.412346,42.172028 110.036972,43.135761 107.007141,42.549332 
	C107.579552,39.549244 108.195053,36.968441 108.700775,34.366310 
	C110.155685,26.880224 111.566246,19.385521 113.398422,11.908308 
	C119.549629,13.284356 125.296654,14.646298 131.043671,16.008240 
	C131.043671,16.008240 130.990524,16.017590 131.172287,16.285984 
	C133.584915,17.372047 135.815765,18.189716 138.046631,19.007385 
	C138.046631,19.007385 137.993362,19.012201 138.103806,19.294878 
	C139.158325,20.056936 140.102386,20.536316 141.046463,21.015697 
	C141.046463,21.015697 140.990616,21.016241 141.181198,21.212879 
	C141.930115,21.611376 142.488449,21.813234 143.046783,22.015093 
	C143.046783,22.015093 142.991669,22.011618 143.108032,22.209799 
	C143.495331,22.613890 143.766251,22.819798 144.037186,23.025707 
	C144.037186,23.025709 143.981628,23.013683 143.988220,23.242573 
	C144.010117,23.641943 144.025406,23.812426 144.040710,23.982906 
z"/>
<path fill="#0D0D0D" opacity="1.000000" stroke="none" 
	d="
M63.307037,95.889900 
	C62.028904,96.219727 60.598206,96.284576 59.495647,96.919365 
	C44.366859,105.629539 28.224365,111.184975 10.390391,112.915176 
	C9.860716,105.583023 9.734519,98.158119 10.233207,90.364738 
	C24.884855,89.581787 37.189110,83.898361 49.513168,77.661926 
	C51.513268,79.934448 53.242760,81.992783 55.093945,84.366455 
	C57.912773,88.417839 60.609905,92.153870 63.307037,95.889900 
z"/>
<path fill="#131313" opacity="1.000000" stroke="none" 
	d="
M14.053883,67.986664 
	C20.463478,52.124187 28.800293,37.664845 43.844582,27.354040 
	C44.558788,26.635086 44.787609,26.297668 45.016430,25.960251 
	C45.016430,25.960251 45.012909,26.020573 45.280807,25.977388 
	C46.032455,25.608503 46.516209,25.282804 46.999958,24.957104 
	C46.999958,24.957104 47.010063,25.008953 47.208107,24.880690 
	C47.609695,24.488300 47.813240,24.224174 48.016785,23.960049 
	C48.016785,23.960049 48.011265,24.019800 48.318542,23.998447 
	C49.419868,23.303457 50.213917,22.629822 51.007961,21.956184 
	C51.007961,21.956184 51.012543,22.014614 51.283989,21.978384 
	C52.045403,21.616369 52.535374,21.290583 53.025349,20.964798 
	C53.025349,20.964800 53.011524,21.025198 53.358299,21.004593 
	C56.809162,19.309139 59.913246,17.634291 63.017330,15.959443 
	C63.017330,15.959443 63.010277,16.018488 63.369522,16.032495 
	C65.486237,15.706246 67.243698,15.365990 68.912697,15.392048 
	C65.677361,23.342661 62.504978,30.916559 59.405319,38.520107 
	C58.791557,40.025684 58.457146,41.645142 57.755608,43.435112 
	C55.546005,44.940399 53.574715,46.222660 51.277672,47.615555 
	C48.662586,50.883121 46.373253,54.040054 43.803894,57.024380 
	C41.719368,57.323959 39.845184,57.619370 38.122250,58.298512 
	C30.076609,61.469913 22.072706,64.747223 14.053883,67.986664 
z"/>
<path fill="#101010" opacity="1.000000" stroke="none" 
	d="
M14.003719,68.356354 
	C22.072706,64.747223 30.076609,61.469913 38.122250,58.298512 
	C39.845184,57.619370 41.719368,57.323959 43.749901,57.416203 
	C41.792480,65.535324 44.818886,71.680542 49.242558,77.447739 
	C37.189110,83.898361 24.884855,89.581787 10.417494,89.995560 
	C11.302448,82.905243 12.628002,75.815643 14.003719,68.356354 
z"/>
<path fill="#393939" opacity="1.000000" stroke="none" 
	d="
M69.001167,15.025734 
	C67.243698,15.365990 65.486237,15.706246 63.342739,16.019581 
	C70.030991,13.816435 76.972343,10.605248 84.206787,9.676121 
	C100.017654,7.645517 115.763000,8.431734 130.810852,15.737082 
	C125.296654,14.646298 119.549629,13.284356 113.031746,11.754677 
	C105.183975,11.177052 98.107063,10.767163 90.627998,10.354638 
	C83.150948,11.909912 76.076057,13.467823 69.001167,15.025734 
z"/>
<path fill="#393939" opacity="1.000000" stroke="none" 
	d="
M62.642784,15.982086 
	C59.913246,17.634291 56.809162,19.309139 53.330704,20.990511 
	C56.060303,19.332933 59.164272,17.668831 62.642784,15.982086 
z"/>
<path fill="#393939" opacity="1.000000" stroke="none" 
	d="
M137.800629,18.763210 
	C135.815765,18.189716 133.584915,17.372047 131.161163,16.261406 
	C133.163727,16.818636 135.359177,17.668835 137.800629,18.763210 
z"/>
<path fill="#393939" opacity="1.000000" stroke="none" 
	d="
M140.878387,20.743847 
	C140.102386,20.536316 139.158325,20.056936 138.094101,19.269962 
	C138.886063,19.465578 139.798187,19.968788 140.878387,20.743847 
z"/>
<path fill="#393939" opacity="1.000000" stroke="none" 
	d="
M50.690121,22.007168 
	C50.213917,22.629822 49.419868,23.303457 48.290939,23.986687 
	C48.761471,23.350235 49.566875,22.704193 50.690121,22.007168 
z"/>
<path fill="#393939" opacity="1.000000" stroke="none" 
	d="
M142.839966,21.798573 
	C142.488449,21.813234 141.930115,21.611376 141.166229,21.189304 
	C141.518173,21.173410 142.075668,21.377729 142.839966,21.798573 
z"/>
<path fill="#393939" opacity="1.000000" stroke="none" 
	d="
M52.725208,21.007126 
	C52.535374,21.290583 52.045403,21.616369 51.255840,21.970226 
	C51.445854,21.682018 51.935459,21.365738 52.725208,21.007126 
z"/>
<path fill="#393939" opacity="1.000000" stroke="none" 
	d="
M144.374298,24.004705 
	C144.025406,23.812426 144.010117,23.641943 143.993851,23.214710 
	C144.551559,23.150496 145.110229,23.343031 145.855957,23.774605 
	C145.597961,24.017931 145.152924,24.022217 144.374298,24.004705 
z"/>
<path fill="#393939" opacity="1.000000" stroke="none" 
	d="
M149.866089,27.663406 
	C149.599716,27.473833 149.306046,27.000082 148.997711,26.240704 
	C149.268295,26.429792 149.553543,26.904512 149.866089,27.663406 
z"/>
<path fill="#393939" opacity="1.000000" stroke="none" 
	d="
M148.844208,25.789139 
	C148.484848,25.819614 147.925568,25.620613 147.163574,25.198055 
	C147.522003,25.169554 148.083145,25.364609 148.844208,25.789139 
z"/>
<path fill="#393939" opacity="1.000000" stroke="none" 
	d="
M46.692055,24.936417 
	C46.516209,25.282804 46.032455,25.608503 45.252468,25.966919 
	C45.432201,25.638330 45.908176,25.277029 46.692055,24.936417 
z"/>
<path fill="#393939" opacity="1.000000" stroke="none" 
	d="
M47.772392,24.059872 
	C47.813240,24.224174 47.609695,24.488300 47.183311,24.871597 
	C47.149647,24.713743 47.338821,24.436720 47.772392,24.059872 
z"/>
<path fill="#393939" opacity="1.000000" stroke="none" 
	d="
M143.933838,22.785336 
	C143.766251,22.819798 143.495331,22.613890 143.096985,22.184494 
	C143.256561,22.155657 143.543518,22.350309 143.933838,22.785336 
z"/>
<path fill="#393939" opacity="1.000000" stroke="none" 
	d="
M44.750534,26.132847 
	C44.787609,26.297668 44.558788,26.635086 44.126305,27.210382 
	C44.109974,27.067322 44.297306,26.686380 44.750534,26.132847 
z"/>
<path fill="#393939" opacity="1.000000" stroke="none" 
	d="
M146.929474,24.792480 
	C146.760941,24.827675 146.486176,24.624472 146.090210,24.192608 
	C146.253754,24.160660 146.538513,24.357372 146.929474,24.792480 
z"/>
<path fill="#D14D73" opacity="1.000000" stroke="none" 
	d="
M97.148697,100.995285 
	C104.525986,91.369705 111.903282,81.744125 119.643295,72.438858 
	C120.126686,78.665886 120.247360,84.572601 120.368027,90.479324 
	C119.408325,92.024986 118.743431,93.902687 117.439377,95.060509 
	C110.753532,100.996674 108.883125,108.355209 109.868805,116.996864 
	C110.392487,121.588074 109.976067,126.289650 109.939011,130.941040 
	C109.858139,141.089981 106.508629,146.540726 98.360901,149.857742 
	C89.994446,153.263840 80.515411,151.222733 74.536507,144.326782 
	C76.465179,144.444321 78.025978,144.948456 79.617996,145.318207 
	C86.344597,146.880402 93.552429,143.159088 95.985016,136.946625 
	C95.997719,136.979904 95.931137,137.005203 96.172760,136.871582 
	C96.544495,136.400314 96.674606,136.062653 96.912086,135.334671 
	C97.062531,123.627991 97.105614,112.311638 97.148697,100.995285 
z"/>
<path fill="#F2B12B" opacity="1.000000" stroke="none" 
	d="
M120.618500,90.341125 
	C120.247360,84.572601 120.126686,78.665886 119.944321,72.281860 
	C126.870842,62.757675 133.859070,53.710796 140.980911,44.353859 
	C148.016983,41.432415 150.804352,43.312851 150.871613,50.605221 
	C150.900787,53.768700 151.260971,56.963314 150.923813,60.084702 
	C150.673157,62.405426 150.158630,65.783379 148.640472,66.596085 
	C146.893951,67.531036 143.912827,66.159729 140.812897,65.691071 
	C134.618408,73.304337 127.743683,81.753632 120.618500,90.341125 
z"/>
<path fill="#41509C" opacity="1.000000" stroke="none" 
	d="
M95.972313,136.913361 
	C93.552429,143.159088 86.344597,146.880402 79.617996,145.318207 
	C78.025978,144.948456 76.465179,144.444321 74.504669,143.988129 
	C69.687660,140.164261 70.243057,134.921402 70.005875,129.444656 
	C70.015862,128.835983 70.091911,128.669937 70.586090,128.121368 
	C74.868263,125.978783 78.732300,124.218719 82.680740,122.941788 
	C82.775444,124.900970 82.789368,126.377014 82.795448,127.853088 
	C82.835922,137.677856 86.995491,140.538437 95.972313,136.913361 
z"/>
<path fill="#50ABBE" opacity="1.000000" stroke="none" 
	d="
M51.603420,47.504925 
	C53.574715,46.222660 55.546005,44.940399 58.215767,43.425941 
	C65.928894,42.099834 72.322578,43.437531 78.017197,48.349052 
	C82.050522,53.694225 85.949715,58.728249 90.105705,64.093811 
	C91.920128,61.494736 93.240349,59.603588 94.542549,57.738258 
	C89.136436,52.953289 89.462196,50.765930 95.662186,48.083927 
	C99.468262,46.437477 103.222549,44.671295 107.000092,42.958874 
	C110.036972,43.135761 113.412346,42.172028 115.296921,45.855412 
	C117.214531,49.603348 114.923859,52.220291 112.964127,54.824871 
	C107.786736,61.705891 102.451118,68.467583 97.224426,75.311867 
	C91.723961,82.514656 88.127945,82.575668 82.503799,75.477478 
	C81.887238,74.699318 81.293831,73.902809 80.317352,72.592941 
	C75.719261,66.697868 71.493492,61.324669 67.099747,55.628494 
	C63.899570,53.937809 60.822376,52.659988 57.850235,51.172283 
	C55.695847,50.093906 53.680672,48.737404 51.603420,47.504925 
z"/>
<path fill="#0D0D0D" opacity="1.000000" stroke="none" 
	d="
M107.007141,42.549332 
	C103.222549,44.671295 99.468262,46.437477 95.662186,48.083927 
	C89.462196,50.765930 89.136436,52.953289 94.542549,57.738258 
	C93.240349,59.603588 91.920128,61.494736 90.105705,64.093811 
	C85.949715,58.728249 82.050522,53.694225 78.349205,48.237785 
	C79.565926,46.793030 80.897156,45.939392 81.554695,44.721912 
	C87.342255,34.005772 91.325157,22.763086 91.030159,10.357275 
	C98.107063,10.767163 105.183975,11.177052 112.627548,11.740570 
	C111.566246,19.385521 110.155685,26.880224 108.700775,34.366310 
	C108.195053,36.968441 107.579552,39.549244 107.007141,42.549332 
z"/>
<path fill="#070708" opacity="1.000000" stroke="none" 
	d="
M95.985016,136.946625 
	C86.995491,140.538437 82.835922,137.677856 82.795448,127.853088 
	C82.789368,126.377014 82.775444,124.900970 82.784660,122.568634 
	C82.542702,119.119339 82.281235,116.526329 82.019760,113.933311 
	C86.819374,109.648392 91.618980,105.363472 96.783646,101.036911 
	C97.105614,112.311638 97.062531,123.627991 96.663322,135.472366 
	C96.181847,136.335327 96.056488,136.670258 95.931137,137.005203 
	C95.931137,137.005203 95.997719,136.979904 95.985016,136.946625 
z"/>
<path fill="#101010" opacity="1.000000" stroke="none" 
	d="
M67.267723,55.951462 
	C71.493492,61.324669 75.719261,66.697868 80.042564,72.388000 
	C76.560890,75.429420 72.981689,78.153915 68.784714,80.820221 
	C66.795761,79.165306 65.424591,77.568558 63.933258,75.655792 
	C62.277977,73.377037 60.788746,71.376190 59.197304,69.460243 
	C56.603024,66.336975 54.765404,63.043991 57.260765,59.069386 
	C59.654575,55.256531 63.220779,54.712185 67.267723,55.951462 
z"/>
<path fill="#4456A1" opacity="1.000000" stroke="none" 
	d="
M64.053413,75.971817 
	C65.424591,77.568558 66.795761,79.165306 68.438843,80.920975 
	C71.256714,84.720375 73.802689,88.360847 76.141296,92.618057 
	C73.008957,95.509018 70.083977,97.783241 67.158997,100.057465 
	C66.047264,98.790459 64.935539,97.523453 63.565426,96.073174 
	C60.609905,92.153870 57.912773,88.417839 55.300419,84.100845 
	C58.274601,81.003860 61.164005,78.487839 64.053413,75.971817 
z"/>
<path fill="#D14D73" opacity="1.000000" stroke="none" 
	d="
M81.716980,113.779221 
	C82.281235,116.526329 82.542702,119.119339 82.700256,122.085510 
	C78.732300,124.218719 74.868263,125.978783 70.694496,127.869804 
	C70.264191,125.018173 69.887756,122.019485 70.074303,119.056229 
	C70.513245,112.084000 75.545853,109.744629 81.716980,113.779221 
z"/>
<path fill="#50ABBE" opacity="1.000000" stroke="none" 
	d="
M67.251328,100.372849 
	C70.083977,97.783241 73.008957,95.509018 76.190392,92.966972 
	C78.043694,94.543129 79.771057,96.291687 81.205925,98.254105 
	C83.217209,101.004883 83.240631,103.907707 80.549110,106.200920 
	C77.666664,108.656792 74.413704,108.672791 71.606155,106.088219 
	C69.940163,104.554543 68.748566,102.505531 67.251328,100.372849 
z"/>
<path fill="#4658A2" opacity="1.000000" stroke="none" 
	d="
M63.933258,75.655792 
	C61.164005,78.487839 58.274601,81.003860 55.178722,83.785500 
	C53.242760,81.992783 51.513268,79.934448 49.513168,77.661926 
	C44.818886,71.680542 41.792480,65.535324 44.029922,57.588810 
	C46.373253,54.040054 48.662586,50.883121 51.277672,47.615555 
	C53.680672,48.737404 55.695847,50.093906 57.850235,51.172283 
	C60.822376,52.659988 63.899570,53.937809 67.099747,55.628494 
	C63.220779,54.712185 59.654575,55.256531 57.260765,59.069386 
	C54.765404,63.043991 56.603024,66.336975 59.197304,69.460243 
	C60.788746,71.376190 62.277977,73.377037 63.933258,75.655792 
z"/>
<path fill="#0F1010" opacity="1.000000" stroke="none" 
	d="
M90.627998,10.354638 
	C91.325157,22.763086 87.342255,34.005772 81.554695,44.721912 
	C80.897156,45.939392 79.565926,46.793030 78.215073,47.926643 
	C72.322578,43.437531 65.928894,42.099834 58.454071,43.202919 
	C58.457146,41.645142 58.791557,40.025684 59.405319,38.520107 
	C62.504978,30.916559 65.677361,23.342661 68.912697,15.392048 
	C76.076057,13.467823 83.150948,11.909912 90.627998,10.354638 
z"/>
<path fill="#41509C" opacity="1.000000" stroke="none" 
	d="
M96.172760,136.871582 
	C96.056488,136.670258 96.181847,136.335327 96.555962,135.862686 
	C96.674606,136.062653 96.544495,136.400314 96.172760,136.871582 
z"/>
</svg>